<svg xmlns="http://www.w3.org/2000/svg" width="116.6" height="19" viewBox="0 0 116.6 19">
  <g id="Group_212" data-name="Group 212" transform="translate(-340.4 -14)">
    <path id="Icon_awesome-phone-alt" data-name="Icon awesome-phone-alt" d="M.428,10.612,3.713,9.2a.7.7,0,0,1,.821.2l1.455,1.777a10.872,10.872,0,0,0,5.2-5.2L9.409,4.532a.7.7,0,0,1-.2-.821L10.614.426a.709.709,0,0,1,.807-.408l3.05.7a.7.7,0,0,1,.546.686A13.608,13.608,0,0,1,1.408,15.017a.7.7,0,0,1-.686-.546l-.7-3.05a.712.712,0,0,1,.411-.81Z" transform="translate(340.4 17)" fill="#fff"/>
    <text id="_740.993.7266" data-name="740.993.7266" transform="translate(368 29)" fill="#fff" font-size="14" font-family="SegoeUI-Bold, Segoe UI" font-weight="700"><tspan x="0" y="0">740.993.7266</tspan></text>
  </g>
</svg>
